<?xml version="1.0" encoding="UTF-8" standalone="no"?>
<!-- Created with Inkscape (http://www.inkscape.org/) -->

<svg
   xmlns:dc="http://purl.org/dc/elements/1.1/"
   xmlns:cc="http://creativecommons.org/ns#"
   xmlns:rdf="http://www.w3.org/1999/02/22-rdf-syntax-ns#"
   xmlns:svg="http://www.w3.org/2000/svg"
   xmlns="http://www.w3.org/2000/svg"
   xmlns:sodipodi="http://sodipodi.sourceforge.net/DTD/sodipodi-0.dtd"
   xmlns:inkscape="http://www.inkscape.org/namespaces/inkscape"
   version="1.1"
   id="svg3785"
   width="131.48958"
   height="146.43057"
   viewBox="0 0 131.48958 146.43057"
   sodipodi:docname="deadeye.svg"
   inkscape:version="0.92.2 (5c3e80d, 2017-08-06)">
  <metadata
     id="metadata3791">
    <rdf:RDF>
      <cc:Work
         rdf:about="">
        <dc:format>image/svg+xml</dc:format>
        <dc:type
           rdf:resource="http://purl.org/dc/dcmitype/StillImage" />
        <dc:title></dc:title>
      </cc:Work>
    </rdf:RDF>
  </metadata>
  <defs
     id="defs3789" />
  <sodipodi:namedview
     pagecolor="#ffffff"
     bordercolor="#666666"
     borderopacity="1"
     objecttolerance="10"
     gridtolerance="10"
     guidetolerance="10"
     inkscape:pageopacity="0"
     inkscape:pageshadow="2"
     inkscape:window-width="1920"
     inkscape:window-height="1026"
     id="namedview3787"
     showgrid="false"
     fit-margin-top="0"
     fit-margin-left="0"
     fit-margin-right="0"
     fit-margin-bottom="0"
     inkscape:zoom="2.1859947"
     inkscape:cx="26.491649"
     inkscape:cy="73.687711"
     inkscape:window-x="0"
     inkscape:window-y="26"
     inkscape:window-maximized="1"
     inkscape:current-layer="svg3785" />
  <path
     style="fill:#b00000;fill-opacity:1;stroke:#000000;stroke-width:1px;stroke-linecap:butt;stroke-linejoin:miter;stroke-opacity:1"
     d="m 98.311549,107.6252 c 0,0 -6.63314,-0.45746 -4.80331,4.34585 0,0 3.2022,11.43644 3.2022,13.495 0,0 -8.69169,11.66517 -26.53254,19.44195 0,0 -4.34585,2.28729 -8.00551,0 0,0 -11.665169,-4.8033 -26.303814,-19.44195 l 3.202204,-13.95246 c 0,0 0.914915,-5.26076 -4.117119,-3.43093 0,0 -15.78229,7.31932 -23.330341,0.45746 0,0 -5.7182209,-4.57458 -7.0905939,-8.00551 0,0 -1.372373,-3.659659 1.829831,-8.005509 l 8.9204239,-12.12263 15.096103,-3.2022 1.829831,13.495 c 0,0 3.88839,7.31932 9.606611,-3.43093 l -0.457458,-11.8939 14.181187,-1.82983 1.372373,-10.52153 -15.55356,1.6011 -0.228729,-14.18118 c 0,0 -5.032034,-4.80331 -7.77678,0 l -3.202204,14.63864 -21.9579669,3.43093 c 0,0 -8.92042504,-11.43644 -7.54805204,-24.24525 0,0 1.37237404,-20.128139 23.78779894,-31.56458 0,0 17.612119,-9.6066105 31.10712,-11.4364415 0,0 14.867365,-2.516017 27.447455,1.601102 0,0 18.984501,5.718221 32.250771,14.6386455 0,0 11.8939,9.149153 15.55356,20.585594 0,0 1.14364,16.23975 -2.05856,24.47399 l -9.37788,13.72372 v 8.46297 l 7.31932,9.14915 c 0,0 2.97347,4.57459 0,7.548059 0,0 -2.51602,5.26076 -5.94695,7.31932 0,0 -6.86186,3.43093 -10.97898,2.28729 0,0 -9.835341,-2.51602 -11.436441,-3.43094 z"
     id="path3795"
     inkscape:connector-curvature="0"
     sodipodi:nodetypes="ccccccccccccccccccccccccccccccccccccc" />
  <path
     style="fill:#000000;fill-opacity:1;stroke:#000000;stroke-width:1px;stroke-linecap:butt;stroke-linejoin:miter;stroke-opacity:1"
     d="m 73.151379,74.002071 11.66517,-5.94695 c 3.43093,-0.45746 12.35135,-6.63314 12.35135,-6.63314 2.51602,-1.82983 13.495001,1.14365 13.495001,1.14365 1.6011,3.2022 0.91492,15.0961 0.91492,15.0961 -2.05856,6.40441 -14.409921,9.14915 -14.409921,9.14915 -6.63314,0.22873 -15.0961,-2.51602 -15.0961,-2.51602 -4.34585,-3.65966 -3.65966,-7.54804 -8.92042,-10.29279 z"
     id="path4602"
     inkscape:connector-curvature="0"
     sodipodi:nodetypes="cccccccc" />
  <path
     style="fill:#000000;fill-opacity:1;stroke:#000000;stroke-width:1px;stroke-linecap:butt;stroke-linejoin:miter;stroke-opacity:1"
     d="m 69.949169,81.321391 c -3.88839,-4.80331 -6.63313,0 -6.63313,0 l -5.71823,17.38339 c 0,4.803309 6.63314,0.22873 6.63314,0.22873 1.37237,-2.28729 2.97347,-1.82983 3.88839,0 0,0 5.03204,4.803309 6.17568,0 z"
     id="path4604"
     inkscape:connector-curvature="0"
     sodipodi:nodetypes="ccccccc" />
</svg>
